<svg xmlns="http://www.w3.org/2000/svg" xmlns:xlink="http://www.w3.org/1999/xlink" width="2656" height="2656" viewBox="0 0 2656 2656" fill="none">
<rect x="0" y="0" width="2656" height="2656"   fill="url(#linear_fill_0_5)" >
</rect>
<g filter="url(#filter_0_48)">
<ellipse cx="758" cy="2393" rx="468" ry="40"   fill="url(#linear_fill_0_48)" >
</ellipse>
</g>
<g filter="url(#filter_0_49)">
<ellipse cx="1788" cy="2356" rx="825" ry="40"   fill="url(#linear_fill_0_49)" >
</ellipse>
</g>
<g filter="url(#filter_0_6)">
<path     fill="#FFFFFF"  d="M1184.72 535.69C1214.72 498.69 1381.72 382.69 1576.22 402.19C1770.72 421.69 1963.22 521.19 2036.22 777.69C2046.22 802.192 2039.71 833.215 2102.2 844.71C2391.69 978.227 2339.68 1273.74 2327.68 1316.24C2309.68 1390.24 2264.18 1594.74 1933.68 1661.24L1927.17 1717.75C1952.07 1727.95 2007.17 1754.25 2033.17 1804.75C2049.22 1838.65 2087.19 1929.73 2019.17 2004.25C1985.84 2040.77 1944.95 2050.86 1907.92 2046.43L1896.14 2192.79C1834.94 2204.34 1692.14 2231.29 1692.14 2231.29C1721.14 2268.29 1721.14 2320.29 1711.14 2354.79C1701.14 2389.29 1681.19 2391.39 1672.64 2392.29C1603 2392.59 1438.65 2393.28 1431.15 2393.28C1423.65 2393.28 1416.15 2390.78 1403.65 2370.28C1391.15 2349.78 1389.75 2335.08 1389.15 2328.78L1389.15 2297.78L1364.65 2304.28L1349.15 2311.28L1302.65 2312.78C1302.65 2312.78 1304.65 2317.78 1298.15 2350.78C1291.65 2383.78 1275.9 2389.73 1269.15 2392.28C1196.51 2392.28 1024.15 2392.28 1012.65 2392.28C1001.15 2392.28 993.45 2383.88 990.15 2380.28C985.05 2375.59 973.15 2355.28 973.15 2317.78C973.15 2280.28 992.75 2247.38 1001.15 2233.28L778.65 2183.28L771.83 2042.5C744.918 2044.2 715.808 2038.85 688.65 2021.78C614.65 1975.28 617.65 1877.28 645.15 1815.28C672.65 1753.28 730.4 1725.98 755.15 1714.28L752.26 1653.18C449.752 1599.18 348.756 1337.18 377.76 1169.68C387.359 1103.53 406.253 956.18 604.25 857.68C627.733 845.681 644.735 846.681 652.23 795.68C652.23 795.68 701.219 548.691 955.22 535.69C981.317 535.69 1034.22 535.69 1086.72 550.69C1107.12 557.29 1154.72 572.69 1184.72 535.69Z">
</path>
</g>
<path d="M1329.69 1623.66L744 1493.5L773.134 2186.34L1278.96 2305.99C1279.56 2308.99 1280.97 2316 1297.04 2316C1313.11 2316 1338.93 2316 1348.28 2316C1350.69 2315.7 1356.31 2315 1361.84 2305.99C1361.84 2305.99 1738.42 2227.14 1899.81 2193.35L1941 1491L1329.69 1623.66Z"   fill="#C9CED7" >
</path>
<g filter="url(#filter_0_42)">
<path d="M1327.5 1620C1297.16 1583.4 1226.36 1497.99 839 1466.5C839 1466.5 804 1489.6 789 1499.5L1327.5 1620ZM1327.5 1620C1367.25 1584 1460 1500 1838.5 1466.5C1838.5 1466.5 1886.1 1489.6 1905 1499.5L1327.5 1620Z"   fill="#FFFFFF" >
</path>
</g>
<g filter="url(#filter_0_44)">
<rect  x="1266" y="1616" width="100" height="700" rx="20"    fill="#D9DDE3" >
</rect>
</g>
<g filter="url(#filter_0_38)">
<ellipse cx="895.5" cy="1245" rx="248.5" ry="258"   fill="url(#linear_fill_0_38)" >
</ellipse>
</g>
<g filter="url(#filter_0_39)">
<ellipse cx="1803.5" cy="1290" rx="248.5" ry="258"   fill="url(#linear_fill_0_39)" >
</ellipse>
</g>
<g filter="url(#filter_0_35)">
<rect  x="912" y="987" width="322" height="260" rx="76"    fill="#56C5F5" fill-opacity="0.5">
</rect>
</g>
<g filter="url(#filter_0_37)">
<rect  x="1438" y="958" width="350" height="287" rx="110"    fill="#56C5F5" fill-opacity="0.5">
</rect>
</g>
<path d="M1466 900.93C1509 892.93 1622 888.93 1744 898.93C1760.2 901.03 1798 905.93 1814.5 946.93C1819.15 959.081 1830 987.43 1830 987.43C1837.65 987.28 1855.5 986.93 1863 995.43C1870.5 1003.93 1865.81 1056.02 1863 1077.43C1861.65 1082.08 1858.5 1092.93 1850.5 1092.93L1830 1092.93C1827.6 1117.23 1822 1173.93 1814.5 1193.93C1807 1213.93 1788 1254.93 1731 1263.43C1674 1271.93 1529 1277.93 1482 1265.93C1435 1253.93 1407 1245.43 1388 1186.43C1383.95 1159.88 1374.5 1097.94 1358 1083.44C1341.5 1068.94 1299 1083.44 1299 1083.44C1295.4 1086.89 1287 1094.94 1287 1116.94C1287 1138.94 1277 1186.43 1252.5 1213.94C1252.5 1213.94 1222 1255.44 1183.5 1265.94C1171 1272.44 1096.5 1272.45 1047 1272.45C997.5 1272.45 943 1272.45 916.5 1265.95C890 1259.45 845 1235.95 838.5 1189.95C832 1143.95 825.562 1105.13 823.5 1093.43C812.85 1093.88 788 1094.93 788 1062.43L788 1009.43C788 1003.58 788 989.93 813 989.93L827.5 989.93C829.75 970.73 835 925.93 889 905.43C894.85 902.13 902.5 894.43 939 894.43L1161.5 894.43C1161.5 894.43 1232 896.93 1264.5 946.93C1271.25 957.43 1287 981.93 1287 1003.93L1369 1003.93C1370.8 993.58 1375 969.43 1392.5 946.93C1410 924.43 1423 908.93 1466 900.93ZM951.5 942.167C951.5 942.167 1113 937.175 1170 942.187C1170 942.187 1224.5 949.178 1236 990.677C1247.5 1032.18 1236 1130.18 1236 1130.18C1222 1197.68 1193.5 1222.68 1129.5 1222.68C1107.72 1222.68 1083.28 1223.6 1059.35 1224.51C1012.95 1226.27 968.463 1227.96 949 1222.68C919.498 1214.67 871.5 1183.68 871.5 1149.18L871.5 1019.69C871.5 942.167 951.5 942.167 951.5 942.167ZM1488.61 942.187C1545.61 937.175 1707.11 942.167 1707.11 942.167C1707.11 942.167 1787.11 942.167 1787.11 1019.69L1787.11 1149.18C1787.11 1183.68 1739.11 1214.67 1709.61 1222.68C1690.15 1227.96 1645.66 1226.27 1599.26 1224.51C1575.33 1223.6 1550.89 1222.68 1529.11 1222.68C1465.11 1222.68 1436.61 1197.68 1422.61 1130.18C1422.61 1130.18 1411.11 1032.18 1422.61 990.677C1434.11 949.178 1488.61 942.187 1488.61 942.187Z" fill-rule="evenodd"  fill="#C4C2CE" fill-opacity="0.5">
</path>
<g filter="url(#filter_0_28)">
<path d="M1462.29 900.94C1504.61 892.933 1615.82 888.932 1735.89 898.94C1751.83 901.042 1789.04 905.946 1805.28 946.98C1809.86 959.141 1820.54 987.51 1820.54 987.51C1828.07 987.36 1845.63 987.013 1853.01 995.52C1860.39 1004.03 1855.78 1056.16 1853.01 1077.59C1851.68 1082.24 1848.58 1093.1 1840.71 1093.1L1820.54 1093.1C1818.18 1117.42 1812.66 1174.16 1805.28 1194.18C1797.9 1214.2 1779.2 1255.23 1723.1 1263.74C1667 1272.25 1524.29 1278.25 1478.03 1266.24C1431.77 1254.23 1404.22 1245.73 1385.52 1186.68C1381.53 1160.11 1372.23 1098.11 1355.99 1083.6C1339.75 1069.09 1297.93 1083.6 1297.93 1083.6C1294.39 1087.05 1286.12 1095.11 1286.12 1117.13C1286.12 1139.15 1276.27 1186.68 1252.16 1214.21C1252.16 1214.21 1222.14 1255.74 1184.25 1266.25C1171.95 1272.76 1098.63 1272.77 1049.91 1272.77C1001.19 1272.77 947.551 1272.77 921.47 1266.26C895.389 1259.75 851.097 1236.24 844.7 1190.2C838.303 1144.16 831.97 1105.31 829.94 1093.6C819.458 1094.05 795 1095.1 795 1062.57L795 1009.53C795 1003.67 795 990.01 819.6 990.01L833.88 990.01C836.094 970.794 841.253 925.957 894.4 905.44C900.158 902.137 907.687 894.43 943.61 894.43L1162.6 894.43C1162.6 894.43 1231.98 896.938 1263.97 946.98C1270.61 957.489 1286.12 982.002 1286.12 1004.02L1366.82 1004.02C1368.59 993.661 1372.73 969.499 1389.95 946.98C1407.17 924.461 1419.97 908.947 1462.29 900.94ZM955.921 942.206C955.921 942.206 1114.86 937.21 1170.96 942.226C1170.96 942.226 1224.6 949.223 1235.92 990.756C1247.24 1032.29 1235.92 1130.38 1235.92 1130.38C1222.14 1197.93 1194.09 1222.96 1131.1 1222.96C1109.67 1222.96 1085.61 1223.88 1062.06 1224.79C1016.4 1226.55 972.616 1228.24 953.461 1222.96C924.425 1214.95 877.181 1183.92 877.181 1149.4L877.181 1019.8C877.181 942.212 955.921 942.206 955.921 942.206ZM1484.54 942.226C1540.64 937.21 1699.58 942.206 1699.58 942.206C1699.58 942.206 1778.32 942.212 1778.32 1019.8L1778.32 1149.4C1778.32 1183.92 1731.08 1214.95 1702.04 1222.96C1682.89 1228.24 1639.11 1226.55 1593.44 1224.79C1569.89 1223.88 1545.84 1222.96 1524.4 1222.96C1461.41 1222.96 1433.36 1197.93 1419.58 1130.38C1419.58 1130.38 1408.27 1032.29 1419.58 990.756C1430.9 949.223 1484.54 942.226 1484.54 942.226Z" fill-rule="evenodd"  fill="#C1C1C9" >
</path>
</g>
<rect  x="1067" y="1032" width="104" height="154" rx="52"    fill="#3C7D9A" >
</rect>
<rect  x="1484" y="1032" width="104" height="154" rx="52"    fill="#3C7D9A" >
</rect>
<g filter="url(#filter_0_40)">
<path d="M1203 1298.51C1197 1284.51 1223 1261.01 1241 1284.51C1244.75 1293.21 1259.5 1315.01 1280.5 1322.51C1301.5 1330.01 1335 1336.01 1364 1322.51C1393 1309.01 1393.5 1306.03 1402.5 1284.51C1411.5 1263 1449.5 1276 1443.5 1298.51C1437.5 1321.03 1431 1335 1393.5 1356.5C1356 1378 1324.5 1380 1270.5 1365C1216.5 1350 1203 1298.51 1203 1298.51Z"   fill="#D67C83" >
</path>
</g>
<g filter="url(#filter_0_46)">
<path     fill="#FFFFFF"  d="M753.98 1713L758.95 1784.08C798.188 1794.83 857.96 1818.4 874.48 1853.5C894.48 1896 903.98 1970.5 854.48 2010.5C804.98 2050.5 748.63 2041.4 724.48 2037.5C683.417 2025.05 595.98 1967.5 629.48 1853.5C662.98 1739.5 726.68 1720.95 753.98 1713Z">
</path>
</g>
<g filter="url(#filter_0_47)">
<path     fill="#FFFFFF"  d="M1927.17 1717L1921.88 1790.84C1880.01 1802.01 1816.23 1826.5 1798.6 1862.97C1777.26 1907.12 1767.12 1984.52 1819.94 2026.08C1872.76 2067.64 1932.88 2058.19 1958.65 2054.14C2002.46 2041.21 2095.75 1981.41 2060.01 1862.97C2024.27 1744.53 1956.3 1725.26 1927.17 1717Z">
</path>
</g>
<defs>
<linearGradient id="linear_fill_0_5" x1="1410.2032000000002" y1="0" x2="1410.2032000000002" y2="2656" gradientUnits="userSpaceOnUse">
<stop offset="0" stop-color="#72AECD"  />
<stop offset="1" stop-color="#BEE3F5"  />
</linearGradient>
<linearGradient id="linear_fill_0_48" x1="-44.30176" y1="2353" x2="1226" y2="2393" gradientUnits="userSpaceOnUse">
<stop offset="0" stop-color="#CCCCCC" stop-opacity="0" />
<stop offset="1" stop-color="#A6A6A6" stop-opacity="0.42" />
</linearGradient>
<filter id="filter_0_48" x="250" y="2313" width="1016" height="160" filterUnits="userSpaceOnUse" color-interpolation-filters="sRGB">
<feGaussianBlur result="gaussian_blur_0_48" stdDeviation="20"/>
</filter>
<linearGradient id="linear_fill_0_49" x1="773.1510000000001" y1="2316" x2="2613" y2="2087.2632" gradientUnits="userSpaceOnUse">
<stop offset="0" stop-color="#0E313D"  />
<stop offset="0.8469303667078698" stop-color="#84DBFA" stop-opacity="0.28" />
<stop offset="1" stop-color="#5BC4EB" stop-opacity="0" />
</linearGradient>
<filter id="filter_0_49" x="923" y="2276" width="1730" height="160" filterUnits="userSpaceOnUse" color-interpolation-filters="sRGB">
<feGaussianBlur result="gaussian_blur_0_49" stdDeviation="20"/>
</filter>
<filter id="filter_0_6" x="373.00177001953125" y="399.9976806640625" width="1966.0076293945312" height="1993.2823486328125" filterUnits="userSpaceOnUse" color-interpolation-filters="sRGB">
<feFlood flood-opacity="0" result="feFloodId_0_6"/>
<feBlend mode="normal" in="SourceGraphic" in2="feFloodId_0_6" result="shape_0_6"/>
<feColorMatrix in="SourceAlpha" type="matrix" values="0 0 0 0 0 0 0 0 0 0 0 0 0 0 0 0 0 0 127 0" result="hardAlpha_0_6"/>
<feOffset dx="-30" dy="2"/>
<feGaussianBlur stdDeviation="31.5"/>
<feComposite in2="hardAlpha_0_6" operator="arithmetic" k2="-1" k3="1"/>
<feColorMatrix type="matrix" values="0 0 0 0 0 0 0 0 0 0 0 0 0 0 0 0 0 0 0.25 0"/>
<feBlend mode="normal" in2="shape_0_6" result="innerShadow_0_0_6" />
</filter>
<filter id="filter_0_42" x="732" y="1394.5" width="1236" height="273.5" filterUnits="userSpaceOnUse" color-interpolation-filters="sRGB">
<feFlood flood-opacity="0" result="feFloodId_0_42"/>
<feColorMatrix in="SourceAlpha" type="matrix" values="0 0 0 0 0 0 0 0 0 0 0 0 0 0 0 0 0 0 127 0" result="hardAlpha_0_42"/>
<feOffset dx="3" dy="-12"/>
<feGaussianBlur stdDeviation="30"/>
<feComposite in2="hardAlpha_0_42" operator="out"/>
<feColorMatrix type="matrix" values="0 0 0 0 0 0 0 0 0 0 0 0 0 0 0 0 0 0 0.25 0"/>
<feBlend mode="normal" in2="feFloodId_0_42" result="dropShadow_1_0_42"/>
<feBlend mode="normal" in="SourceGraphic" in2="dropShadow_1_0_42" result="shape_0_42"/>
</filter>
<filter id="filter_0_44" x="1266" y="1616" width="100" height="700" filterUnits="userSpaceOnUse" color-interpolation-filters="sRGB">
<feFlood flood-opacity="0" result="feFloodId_0_44"/>
<feBlend mode="normal" in="SourceGraphic" in2="feFloodId_0_44" result="shape_0_44"/>
<feColorMatrix in="SourceAlpha" type="matrix" values="0 0 0 0 0 0 0 0 0 0 0 0 0 0 0 0 0 0 127 0" result="hardAlpha_0_44"/>
<feOffset dx="13" dy="3"/>
<feGaussianBlur stdDeviation="2"/>
<feComposite in2="hardAlpha_0_44" operator="arithmetic" k2="-1" k3="1"/>
<feColorMatrix type="matrix" values="0 0 0 0 0.9647058823529412 0 0 0 0 0.9725490196078431 0 0 0 0 0.9607843137254902 0 0 0 0.4 0"/>
<feBlend mode="normal" in2="shape_0_44" result="innerShadow_0_0_44" />
<feColorMatrix in="SourceAlpha" type="matrix" values="0 0 0 0 0 0 0 0 0 0 0 0 0 0 0 0 0 0 127 0" result="hardAlpha_0_44"/>
<feOffset dx="-7" dy="2"/>
<feGaussianBlur stdDeviation="12.5"/>
<feComposite in2="hardAlpha_0_44" operator="arithmetic" k2="-1" k3="1"/>
<feColorMatrix type="matrix" values="0 0 0 0 0.9647058823529412 0 0 0 0 0.9725490196078431 0 0 0 0 0.9607843137254902 0 0 0 0.4 0"/>
<feBlend mode="normal" in2="innerShadow_0_0_44" result="innerShadow_1_0_44" />
<feColorMatrix in="SourceAlpha" type="matrix" values="0 0 0 0 0 0 0 0 0 0 0 0 0 0 0 0 0 0 127 0" result="hardAlpha_0_44"/>
<feOffset dx="28" dy="18"/>
<feGaussianBlur stdDeviation="8.5"/>
<feComposite in2="hardAlpha_0_44" operator="arithmetic" k2="-1" k3="1"/>
<feColorMatrix type="matrix" values="0 0 0 0 0.9647058823529412 0 0 0 0 0.9725490196078431 0 0 0 0 0.9607843137254902 0 0 0 0.4 0"/>
<feBlend mode="normal" in2="innerShadow_1_0_44" result="innerShadow_2_0_44" />
</filter>
<radialGradient id="linear_fill_0_38" cx="0" cy="0" r="1" gradientTransform="translate(895.5 1245) rotate(-180) scale(256.32467532467535, 258)" gradientUnits="userSpaceOnUse">
<stop offset="0" stop-color="#FFCBD4"  />
<stop offset="1" stop-color="#FFCBD4" stop-opacity="0" />
</radialGradient>
<filter id="filter_0_38" x="627" y="967" width="537" height="556" filterUnits="userSpaceOnUse" color-interpolation-filters="sRGB">
<feGaussianBlur result="gaussian_blur_0_38" stdDeviation="10"/>
</filter>
<radialGradient id="linear_fill_0_39" cx="0" cy="0" r="1" gradientTransform="translate(1803.5 1290) rotate(-180) scale(256.32467532467535, 258)" gradientUnits="userSpaceOnUse">
<stop offset="0" stop-color="#FFCBD4"  />
<stop offset="1" stop-color="#FFCBD4" stop-opacity="0" />
</radialGradient>
<filter id="filter_0_39" x="1535" y="1012" width="537" height="556" filterUnits="userSpaceOnUse" color-interpolation-filters="sRGB">
<feGaussianBlur result="gaussian_blur_0_39" stdDeviation="10"/>
</filter>
<filter id="filter_0_35" x="862" y="937" width="376" height="310" filterUnits="userSpaceOnUse" color-interpolation-filters="sRGB">
<feFlood flood-opacity="0" result="feFloodId_0_35"/>
<feColorMatrix in="SourceAlpha" type="matrix" values="0 0 0 0 0 0 0 0 0 0 0 0 0 0 0 0 0 0 127 0" result="hardAlpha_0_35"/>
<feOffset dx="0" dy="-38"/>
<feGaussianBlur stdDeviation="2"/>
<feComposite in2="hardAlpha_0_35" operator="out"/>
<feColorMatrix type="matrix" values="0 0 0 0 0.4823529411764706 0 0 0 0 0.7803921568627451 0 0 0 0 0.9098039215686274 0 0 0 1 0"/>
<feBlend mode="normal" in2="feFloodId_0_35" result="dropShadow_1_0_35"/>
<feBlend mode="normal" in="SourceGraphic" in2="dropShadow_1_0_35" result="shape_0_35"/>
<feGaussianBlur result="gaussian_blur_0_35" stdDeviation="25"/>
</filter>
<filter id="filter_0_37" x="1388" y="908" width="400" height="337" filterUnits="userSpaceOnUse" color-interpolation-filters="sRGB">
<feFlood flood-opacity="0" result="feFloodId_0_37"/>
<feColorMatrix in="SourceAlpha" type="matrix" values="0 0 0 0 0 0 0 0 0 0 0 0 0 0 0 0 0 0 127 0" result="hardAlpha_0_37"/>
<feOffset dx="-26" dy="-38"/>
<feGaussianBlur stdDeviation="2"/>
<feComposite in2="hardAlpha_0_37" operator="out"/>
<feColorMatrix type="matrix" values="0 0 0 0 0.4823529411764706 0 0 0 0 0.7803921568627451 0 0 0 0 0.9098039215686274 0 0 0 1 0"/>
<feBlend mode="normal" in2="feFloodId_0_37" result="dropShadow_1_0_37"/>
<feBlend mode="normal" in="SourceGraphic" in2="dropShadow_1_0_37" result="shape_0_37"/>
<feGaussianBlur result="gaussian_blur_0_37" stdDeviation="25"/>
</filter>
<filter id="filter_0_28" x="795" y="893.0023498535156" width="1061.9960327148438" height="379.9964084625244" filterUnits="userSpaceOnUse" color-interpolation-filters="sRGB">
<feFlood flood-opacity="0" result="feFloodId_0_28"/>
<feBlend mode="normal" in="SourceGraphic" in2="feFloodId_0_28" result="shape_0_28"/>
<feColorMatrix in="SourceAlpha" type="matrix" values="0 0 0 0 0 0 0 0 0 0 0 0 0 0 0 0 0 0 127 0" result="hardAlpha_0_28"/>
<feOffset dx="0" dy="-13"/>
<feGaussianBlur stdDeviation="2"/>
<feComposite in2="hardAlpha_0_28" operator="arithmetic" k2="-1" k3="1"/>
<feColorMatrix type="matrix" values="0 0 0 0 0 0 0 0 0 0 0 0 0 0 0 0 0 0 0.25 0"/>
<feBlend mode="normal" in2="shape_0_28" result="innerShadow_0_0_28" />
</filter>
<filter id="filter_0_40" x="1202.1216125488281" y="1273.5290603637695" width="242.0186767578125" height="101.19547271728516" filterUnits="userSpaceOnUse" color-interpolation-filters="sRGB">
<feFlood flood-opacity="0" result="feFloodId_0_40"/>
<feBlend mode="normal" in="SourceGraphic" in2="feFloodId_0_40" result="shape_0_40"/>
<feColorMatrix in="SourceAlpha" type="matrix" values="0 0 0 0 0 0 0 0 0 0 0 0 0 0 0 0 0 0 127 0" result="hardAlpha_0_40"/>
<feOffset dx="-10" dy="2"/>
<feGaussianBlur stdDeviation="2"/>
<feComposite in2="hardAlpha_0_40" operator="arithmetic" k2="-1" k3="1"/>
<feColorMatrix type="matrix" values="0 0 0 0 0 0 0 0 0 0 0 0 0 0 0 0 0 0 0.25 0"/>
<feBlend mode="normal" in2="shape_0_40" result="innerShadow_0_0_40" />
</filter>
<filter id="filter_0_46" x="621.9959716796875" y="1713" width="268.6979675292969" height="328.2191162109375" filterUnits="userSpaceOnUse" color-interpolation-filters="sRGB">
<feFlood flood-opacity="0" result="feFloodId_0_46"/>
<feBlend mode="normal" in="SourceGraphic" in2="feFloodId_0_46" result="shape_0_46"/>
<feColorMatrix in="SourceAlpha" type="matrix" values="0 0 0 0 0 0 0 0 0 0 0 0 0 0 0 0 0 0 127 0" result="hardAlpha_0_46"/>
<feOffset dx="-15" dy="6"/>
<feGaussianBlur stdDeviation="18.5"/>
<feComposite in2="hardAlpha_0_46" operator="arithmetic" k2="-1" k3="1"/>
<feColorMatrix type="matrix" values="0 0 0 0 0 0 0 0 0 0 0 0 0 0 0 0 0 0 0.25 0"/>
<feBlend mode="normal" in2="shape_0_46" result="innerShadow_0_0_46" />
</filter>
<filter id="filter_0_47" x="1713.1240234375" y="1658" width="450.630126953125" height="472.6375732421875" filterUnits="userSpaceOnUse" color-interpolation-filters="sRGB">
<feFlood flood-opacity="0" result="feFloodId_0_47"/>
<feColorMatrix in="SourceAlpha" type="matrix" values="0 0 0 0 0 0 0 0 0 0 0 0 0 0 0 0 0 0 127 0" result="hardAlpha_0_47"/>
<feOffset dx="7" dy="2"/>
<feGaussianBlur stdDeviation="30.5"/>
<feComposite in2="hardAlpha_0_47" operator="out"/>
<feColorMatrix type="matrix" values="0 0 0 0 0 0 0 0 0 0 0 0 0 0 0 0 0 0 0.15 0"/>
<feBlend mode="normal" in2="feFloodId_0_47" result="dropShadow_1_0_47"/>
<feBlend mode="normal" in="SourceGraphic" in2="dropShadow_1_0_47" result="shape_0_47"/>
<feBlend mode="normal" in="SourceGraphic" in2="feFloodId_0_47" result="shape_0_47"/>
<feColorMatrix in="SourceAlpha" type="matrix" values="0 0 0 0 0 0 0 0 0 0 0 0 0 0 0 0 0 0 127 0" result="hardAlpha_0_47"/>
<feOffset dx="21" dy="2"/>
<feGaussianBlur stdDeviation="18"/>
<feComposite in2="hardAlpha_0_47" operator="arithmetic" k2="-1" k3="1"/>
<feColorMatrix type="matrix" values="0 0 0 0 0 0 0 0 0 0 0 0 0 0 0 0 0 0 0.25 0"/>
<feBlend mode="normal" in2="shape_0_47" result="innerShadow_0_0_47" />
</filter>
</defs>
</svg>
