<svg xmlns="http://www.w3.org/2000/svg" xmlns:xlink="http://www.w3.org/1999/xlink" width="2426" height="2073.0208740234375" viewBox="0 0 2426 2073.0208740234375" fill="none">
<g filter="url(#filter_0_48)">
<ellipse cx="508" cy="1993.0208740234375" rx="468" ry="40"   fill="url(#linear_fill_0_48)" >
</ellipse>
</g>
<g filter="url(#filter_0_49)">
<ellipse cx="1561" cy="1966.0208740234375" rx="825" ry="40"   fill="url(#linear_fill_0_49)" >
</ellipse>
</g>
<g filter="url(#filter_0_6)">
<path     fill="#FFFFFF"  d="M934.735 135.692C964.735 98.6923 1131.73 -17.3077 1326.23 2.19232C1520.73 21.6923 1713.23 121.192 1786.23 377.692C1796.23 402.195 1789.72 433.217 1852.21 444.712C2141.7 578.229 2089.69 873.741 2077.69 916.242C2059.69 990.246 2014.19 1194.74 1683.69 1261.24L1677.18 1317.75C1702.08 1327.95 1757.18 1354.25 1783.18 1404.75C1799.24 1438.65 1837.2 1529.73 1769.18 1604.25C1735.86 1640.77 1694.97 1650.87 1657.93 1646.43L1646.15 1792.79C1584.95 1804.34 1442.15 1831.29 1442.15 1831.29C1471.15 1868.29 1471.15 1920.29 1461.15 1954.79C1451.15 1989.29 1431.2 1991.39 1422.65 1992.29C1352.51 2012.01 1191 1992.29 1191 1992.29C1191 1992.29 1166.16 1990.78 1153.66 1970.28C1141.16 1949.78 1139.76 1935.08 1139.16 1928.78L1139.16 1897.78L1114.66 1904.28L1099.16 1911.28L1052.66 1912.78C1052.66 1912.78 1054.66 1917.78 1048.16 1950.78C1041.66 1983.78 1025.91 1989.73 1019.16 1992.28C928.002 2011.02 787.855 1993.29 775.505 1992.29C763.155 1991.29 743.465 1983.88 740.165 1980.28C735.065 1975.59 723.165 1955.28 723.165 1917.78C723.165 1880.28 742.765 1847.38 751.165 1833.28L528.665 1783.28L521.845 1642.5C494.933 1644.2 465.823 1638.85 438.665 1621.78C364.665 1575.28 367.665 1477.28 395.165 1415.28C422.665 1353.28 480.415 1325.98 505.165 1314.28L502.275 1253.18C199.766 1199.18 98.7711 937.182 127.775 769.682C137.373 703.532 156.268 556.182 354.265 457.682C377.748 445.683 394.75 446.683 402.245 395.682C402.245 395.682 451.233 148.693 705.235 135.692C731.332 135.692 784.235 135.692 836.735 150.692C857.134 157.292 904.735 172.692 934.735 135.692Z">
</path>
</g>
<path d="M1079.69 1223.68L494 1093.52L523.134 1786.36L1028.96 1906.01C1029.56 1909.01 1030.97 1916.02 1047.04 1916.02C1063.11 1916.02 1088.93 1916.02 1098.28 1916.02C1100.69 1915.72 1106.31 1915.02 1111.84 1906.01C1111.84 1906.01 1488.42 1827.16 1649.81 1793.37L1691 1091.02L1079.69 1223.68Z"   fill="#C9CED7" >
</path>
<g filter="url(#filter_0_42)">
<path d="M1077.5 1220.02C1047.16 1183.42 976.363 1098.02 589 1066.52C589 1066.52 554 1089.62 539 1099.52L1077.5 1220.02ZM1077.5 1220.02C1117.25 1184.02 1210 1100.02 1588.5 1066.52C1588.5 1066.52 1636.1 1089.62 1655 1099.52L1077.5 1220.02Z"   fill="#FFFFFF" >
</path>
</g>
<g filter="url(#filter_0_44)">
<rect  x="1016" y="1216.0208740234375" width="100" height="700" rx="20"    fill="#D9DDE3" >
</rect>
</g>
<g filter="url(#filter_0_38)">
<ellipse cx="645.5" cy="845.0208740234375" rx="248.5" ry="258"   fill="url(#linear_fill_0_38)" >
</ellipse>
</g>
<g filter="url(#filter_0_39)">
<ellipse cx="1553.5" cy="890.0208740234375" rx="248.5" ry="258"   fill="url(#linear_fill_0_39)" >
</ellipse>
</g>
<g filter="url(#filter_0_35)">
<rect  x="662" y="587.0208740234375" width="322" height="260" rx="76"    fill="#56C5F5" fill-opacity="0.5">
</rect>
</g>
<g filter="url(#filter_0_37)">
<rect  x="1188" y="558.0208740234375" width="350" height="287" rx="110"    fill="#56C5F5" fill-opacity="0.5">
</rect>
</g>
<path d="M1216 500.951C1259 492.951 1372 488.951 1494 498.951C1510.2 501.051 1548 505.951 1564.5 546.951C1569.15 559.102 1580 587.451 1580 587.451C1587.65 587.301 1605.5 586.951 1613 595.451C1620.5 603.951 1615.81 656.038 1613 677.451C1611.65 682.101 1608.5 692.951 1600.5 692.951L1580 692.951C1577.6 717.251 1572 773.951 1564.5 793.951C1557 813.951 1538 854.951 1481 863.451C1424 871.951 1279 877.951 1232 865.951C1185 853.951 1157 845.451 1138 786.451C1133.95 759.902 1124.5 697.961 1108 683.461C1091.5 668.961 1049 683.461 1049 683.461C1045.4 686.911 1037 694.961 1037 716.961C1037 738.961 1027 786.451 1002.5 813.961C1002.5 813.961 972 855.463 933.5 865.961C921 872.461 846.5 872.471 797 872.471C747.5 872.471 693 872.471 666.5 865.971C640 859.471 595 835.971 588.5 789.971C582 743.971 575.562 705.155 573.5 693.451C562.85 693.901 538 694.951 538 662.451L538 609.451C538 603.601 538 589.951 563 589.951L577.5 589.951C579.75 570.751 585 525.951 639 505.451C644.85 502.151 652.5 494.451 689 494.451L911.5 494.451C911.5 494.451 982 496.951 1014.5 546.951C1021.25 557.451 1037 581.951 1037 603.951L1119 603.951C1120.8 593.601 1125 569.451 1142.5 546.951C1160 524.451 1173 508.951 1216 500.951ZM701.5 542.188C701.5 542.188 863.002 537.196 920 542.208C920 542.208 974.502 549.199 986 590.698C997.498 632.196 986 730.198 986 730.198C972 797.698 943.5 822.698 879.5 822.698C857.723 822.698 833.283 823.625 809.351 824.532C762.952 826.292 718.463 827.978 699 822.698C669.498 814.694 621.5 783.698 621.5 749.198L621.5 619.708C621.5 542.188 701.5 542.188 701.5 542.188ZM1238.61 542.208C1295.61 537.196 1457.11 542.188 1457.11 542.188C1457.11 542.188 1537.11 542.188 1537.11 619.708L1537.11 749.198C1537.11 783.698 1489.11 814.694 1459.61 822.698C1440.15 827.978 1395.66 826.292 1349.26 824.532C1325.33 823.625 1300.89 822.698 1279.11 822.698C1215.11 822.698 1186.61 797.698 1172.61 730.198C1172.61 730.198 1161.11 632.196 1172.61 590.698C1184.11 549.199 1238.61 542.208 1238.61 542.208Z" fill-rule="evenodd"  fill="#C4C2CE" fill-opacity="0.5">
</path>
<g filter="url(#filter_0_28)">
<path d="M1212.29 500.961C1254.61 492.954 1365.82 488.953 1485.89 498.961C1501.83 501.063 1539.04 505.967 1555.28 547.001C1559.86 559.162 1570.54 587.531 1570.54 587.531C1578.07 587.381 1595.63 587.034 1603.01 595.541C1610.39 604.048 1605.78 656.181 1603.01 677.611C1601.68 682.265 1598.58 693.121 1590.71 693.121L1570.54 693.121C1568.18 717.441 1562.66 774.184 1555.28 794.201C1547.9 814.218 1529.2 855.254 1473.1 863.761C1417 872.268 1274.29 878.271 1228.03 866.261C1181.77 854.251 1154.22 845.75 1135.52 786.701C1131.53 760.13 1122.23 698.133 1105.99 683.621C1089.75 669.109 1047.93 683.621 1047.93 683.621C1044.39 687.074 1036.12 695.133 1036.12 717.151C1036.12 739.169 1026.27 786.698 1002.16 814.231C1002.16 814.231 972.142 855.765 934.25 866.271C921.948 872.777 848.628 872.791 799.91 872.791C751.192 872.791 697.551 872.786 671.47 866.281C645.389 859.776 601.097 836.259 594.7 790.221C588.303 744.183 581.97 705.335 579.94 693.621C569.458 694.071 545 695.118 545 662.591L545 609.547C545 603.69 545 590.031 569.6 590.031L583.88 590.031C586.094 570.815 591.253 525.978 644.4 505.461C650.158 502.158 657.687 494.451 693.61 494.451L912.6 494.451C912.6 494.451 981.984 496.959 1013.97 547.001C1020.61 557.51 1036.12 582.023 1036.12 604.041L1116.82 604.041C1118.59 593.682 1122.73 569.52 1139.95 547.001C1157.17 524.482 1169.97 508.968 1212.29 500.961ZM705.921 542.227C705.921 542.227 864.863 537.231 920.961 542.247C920.961 542.247 974.604 549.244 985.921 590.777C997.237 632.31 985.921 730.397 985.921 730.397C972.142 797.953 944.089 822.977 881.101 822.977C859.667 822.977 835.614 823.904 812.062 824.813C766.398 826.573 722.616 828.262 703.461 822.977C674.425 814.966 627.181 783.946 627.181 749.417L627.181 619.817C627.181 542.232 705.921 542.227 705.921 542.227ZM1234.54 542.247C1290.64 537.231 1449.58 542.227 1449.58 542.227C1449.58 542.227 1528.32 542.232 1528.32 619.817L1528.32 749.417C1528.32 783.946 1481.08 814.966 1452.04 822.977C1432.89 828.262 1389.11 826.573 1343.44 824.813C1319.89 823.904 1295.84 822.977 1274.4 822.977C1211.41 822.977 1183.36 797.953 1169.58 730.397C1169.58 730.397 1158.27 632.31 1169.58 590.777C1180.9 549.244 1234.54 542.247 1234.54 542.247Z" fill-rule="evenodd"  fill="#C1C1C9" >
</path>
</g>
<rect  x="817" y="632.0208740234375" width="104" height="154" rx="52"    fill="#3C7D9A" >
</rect>
<rect  x="1234" y="632.0208740234375" width="104" height="154" rx="52"    fill="#3C7D9A" >
</rect>
<g filter="url(#filter_0_40)">
<path d="M953.002 898.534C947.002 884.534 973.002 861.034 991.002 884.534C994.751 893.233 1009.5 915.034 1030.5 922.534C1051.5 930.034 1085 936.034 1114 922.534C1143 909.034 1143.5 906.048 1152.5 884.534C1161.5 863.019 1199.5 876.016 1193.5 898.534C1187.5 921.052 1181 935.024 1143.5 956.524C1106 978.024 1074.5 980.024 1020.5 965.024C966.502 950.024 953.002 898.534 953.002 898.534Z"   fill="#D67C83" >
</path>
</g>
<g filter="url(#filter_0_46)">
<path     fill="#FFFFFF"  d="M503.98 1313.02L508.95 1384.1C548.188 1394.85 607.96 1418.42 624.48 1453.52C644.48 1496.02 653.98 1570.52 604.48 1610.52C554.98 1650.52 498.63 1641.42 474.48 1637.52C433.418 1625.07 345.98 1567.52 379.48 1453.52C412.98 1339.52 476.68 1320.97 503.98 1313.02Z">
</path>
</g>
<g filter="url(#filter_0_47)">
<path     fill="#FFFFFF"  d="M1677.17 1317.02L1671.88 1390.86C1630.01 1402.03 1566.23 1426.52 1548.6 1462.99C1527.26 1507.15 1517.12 1584.54 1569.94 1626.1C1622.76 1667.66 1682.88 1658.21 1708.65 1654.16C1752.46 1641.23 1845.75 1581.43 1810.01 1462.99C1774.27 1344.55 1706.3 1325.28 1677.17 1317.02Z">
</path>
</g>
<defs>
<linearGradient id="linear_fill_0_48" x1="-294.30176" y1="1953.0208740234375" x2="976" y2="1993.0208740234375" gradientUnits="userSpaceOnUse">
<stop offset="0" stop-color="#CCCCCC" stop-opacity="0" />
<stop offset="1" stop-color="#A6A6A6" stop-opacity="0.42" />
</linearGradient>
<filter id="filter_0_48" x="0" y="1913.0208740234375" width="1016" height="160" filterUnits="userSpaceOnUse" color-interpolation-filters="sRGB">
<feGaussianBlur result="gaussian_blur_0_48" stdDeviation="20"/>
</filter>
<linearGradient id="linear_fill_0_49" x1="546.1510000000001" y1="1926.0208740234375" x2="2386" y2="1697.2840740234374" gradientUnits="userSpaceOnUse">
<stop offset="0" stop-color="#0E313D"  />
<stop offset="0.8469303667078698" stop-color="#84DBFA" stop-opacity="0.28" />
<stop offset="1" stop-color="#5BC4EB" stop-opacity="0" />
</linearGradient>
<filter id="filter_0_49" x="696" y="1886.0208740234375" width="1730" height="160" filterUnits="userSpaceOnUse" color-interpolation-filters="sRGB">
<feGaussianBlur result="gaussian_blur_0_49" stdDeviation="20"/>
</filter>
<filter id="filter_0_6" x="123.0164794921875" y="0" width="1966.007568359375" height="2001.055419921875" filterUnits="userSpaceOnUse" color-interpolation-filters="sRGB">
<feFlood flood-opacity="0" result="feFloodId_0_6"/>
<feBlend mode="normal" in="SourceGraphic" in2="feFloodId_0_6" result="shape_0_6"/>
<feColorMatrix in="SourceAlpha" type="matrix" values="0 0 0 0 0 0 0 0 0 0 0 0 0 0 0 0 0 0 127 0" result="hardAlpha_0_6"/>
<feOffset dx="-30" dy="2"/>
<feGaussianBlur stdDeviation="31.5"/>
<feComposite in2="hardAlpha_0_6" operator="arithmetic" k2="-1" k3="1"/>
<feColorMatrix type="matrix" values="0 0 0 0 0 0 0 0 0 0 0 0 0 0 0 0 0 0 0.25 0"/>
<feBlend mode="normal" in2="shape_0_6" result="innerShadow_0_0_6" />
</filter>
<filter id="filter_0_42" x="482" y="994.5208740234375" width="1236" height="273.5" filterUnits="userSpaceOnUse" color-interpolation-filters="sRGB">
<feFlood flood-opacity="0" result="feFloodId_0_42"/>
<feColorMatrix in="SourceAlpha" type="matrix" values="0 0 0 0 0 0 0 0 0 0 0 0 0 0 0 0 0 0 127 0" result="hardAlpha_0_42"/>
<feOffset dx="3" dy="-12"/>
<feGaussianBlur stdDeviation="30"/>
<feComposite in2="hardAlpha_0_42" operator="out"/>
<feColorMatrix type="matrix" values="0 0 0 0 0 0 0 0 0 0 0 0 0 0 0 0 0 0 0.25 0"/>
<feBlend mode="normal" in2="feFloodId_0_42" result="dropShadow_1_0_42"/>
<feBlend mode="normal" in="SourceGraphic" in2="dropShadow_1_0_42" result="shape_0_42"/>
</filter>
<filter id="filter_0_44" x="1016" y="1216.0208740234375" width="100" height="700" filterUnits="userSpaceOnUse" color-interpolation-filters="sRGB">
<feFlood flood-opacity="0" result="feFloodId_0_44"/>
<feBlend mode="normal" in="SourceGraphic" in2="feFloodId_0_44" result="shape_0_44"/>
<feColorMatrix in="SourceAlpha" type="matrix" values="0 0 0 0 0 0 0 0 0 0 0 0 0 0 0 0 0 0 127 0" result="hardAlpha_0_44"/>
<feOffset dx="13" dy="3"/>
<feGaussianBlur stdDeviation="2"/>
<feComposite in2="hardAlpha_0_44" operator="arithmetic" k2="-1" k3="1"/>
<feColorMatrix type="matrix" values="0 0 0 0 0.9647058823529412 0 0 0 0 0.9725490196078431 0 0 0 0 0.9607843137254902 0 0 0 0.4 0"/>
<feBlend mode="normal" in2="shape_0_44" result="innerShadow_0_0_44" />
<feColorMatrix in="SourceAlpha" type="matrix" values="0 0 0 0 0 0 0 0 0 0 0 0 0 0 0 0 0 0 127 0" result="hardAlpha_0_44"/>
<feOffset dx="-7" dy="2"/>
<feGaussianBlur stdDeviation="12.5"/>
<feComposite in2="hardAlpha_0_44" operator="arithmetic" k2="-1" k3="1"/>
<feColorMatrix type="matrix" values="0 0 0 0 0.9647058823529412 0 0 0 0 0.9725490196078431 0 0 0 0 0.9607843137254902 0 0 0 0.4 0"/>
<feBlend mode="normal" in2="innerShadow_0_0_44" result="innerShadow_1_0_44" />
<feColorMatrix in="SourceAlpha" type="matrix" values="0 0 0 0 0 0 0 0 0 0 0 0 0 0 0 0 0 0 127 0" result="hardAlpha_0_44"/>
<feOffset dx="28" dy="18"/>
<feGaussianBlur stdDeviation="8.5"/>
<feComposite in2="hardAlpha_0_44" operator="arithmetic" k2="-1" k3="1"/>
<feColorMatrix type="matrix" values="0 0 0 0 0.9647058823529412 0 0 0 0 0.9725490196078431 0 0 0 0 0.9607843137254902 0 0 0 0.4 0"/>
<feBlend mode="normal" in2="innerShadow_1_0_44" result="innerShadow_2_0_44" />
</filter>
<radialGradient id="linear_fill_0_38" cx="0" cy="0" r="1" gradientTransform="translate(645.5 845.0208740234375) rotate(-180) scale(256.32467532467535, 258)" gradientUnits="userSpaceOnUse">
<stop offset="0" stop-color="#FFCBD4"  />
<stop offset="1" stop-color="#FFCBD4" stop-opacity="0" />
</radialGradient>
<filter id="filter_0_38" x="377" y="567.0208740234375" width="537" height="556" filterUnits="userSpaceOnUse" color-interpolation-filters="sRGB">
<feGaussianBlur result="gaussian_blur_0_38" stdDeviation="10"/>
</filter>
<radialGradient id="linear_fill_0_39" cx="0" cy="0" r="1" gradientTransform="translate(1553.5 890.0208740234375) rotate(-180) scale(256.32467532467535, 258)" gradientUnits="userSpaceOnUse">
<stop offset="0" stop-color="#FFCBD4"  />
<stop offset="1" stop-color="#FFCBD4" stop-opacity="0" />
</radialGradient>
<filter id="filter_0_39" x="1285" y="612.0208740234375" width="537" height="556" filterUnits="userSpaceOnUse" color-interpolation-filters="sRGB">
<feGaussianBlur result="gaussian_blur_0_39" stdDeviation="10"/>
</filter>
<filter id="filter_0_35" x="612" y="537.0208740234375" width="376" height="310" filterUnits="userSpaceOnUse" color-interpolation-filters="sRGB">
<feFlood flood-opacity="0" result="feFloodId_0_35"/>
<feColorMatrix in="SourceAlpha" type="matrix" values="0 0 0 0 0 0 0 0 0 0 0 0 0 0 0 0 0 0 127 0" result="hardAlpha_0_35"/>
<feOffset dx="0" dy="-38"/>
<feGaussianBlur stdDeviation="2"/>
<feComposite in2="hardAlpha_0_35" operator="out"/>
<feColorMatrix type="matrix" values="0 0 0 0 0.4823529411764706 0 0 0 0 0.7803921568627451 0 0 0 0 0.9098039215686274 0 0 0 1 0"/>
<feBlend mode="normal" in2="feFloodId_0_35" result="dropShadow_1_0_35"/>
<feBlend mode="normal" in="SourceGraphic" in2="dropShadow_1_0_35" result="shape_0_35"/>
<feGaussianBlur result="gaussian_blur_0_35" stdDeviation="25"/>
</filter>
<filter id="filter_0_37" x="1138" y="508.0208740234375" width="400" height="337" filterUnits="userSpaceOnUse" color-interpolation-filters="sRGB">
<feFlood flood-opacity="0" result="feFloodId_0_37"/>
<feColorMatrix in="SourceAlpha" type="matrix" values="0 0 0 0 0 0 0 0 0 0 0 0 0 0 0 0 0 0 127 0" result="hardAlpha_0_37"/>
<feOffset dx="-26" dy="-38"/>
<feGaussianBlur stdDeviation="2"/>
<feComposite in2="hardAlpha_0_37" operator="out"/>
<feColorMatrix type="matrix" values="0 0 0 0 0.4823529411764706 0 0 0 0 0.7803921568627451 0 0 0 0 0.9098039215686274 0 0 0 1 0"/>
<feBlend mode="normal" in2="feFloodId_0_37" result="dropShadow_1_0_37"/>
<feBlend mode="normal" in="SourceGraphic" in2="dropShadow_1_0_37" result="shape_0_37"/>
<feGaussianBlur result="gaussian_blur_0_37" stdDeviation="25"/>
</filter>
<filter id="filter_0_28" x="545" y="493.0232238769531" width="1061.9960021972656" height="379.9964084625244" filterUnits="userSpaceOnUse" color-interpolation-filters="sRGB">
<feFlood flood-opacity="0" result="feFloodId_0_28"/>
<feBlend mode="normal" in="SourceGraphic" in2="feFloodId_0_28" result="shape_0_28"/>
<feColorMatrix in="SourceAlpha" type="matrix" values="0 0 0 0 0 0 0 0 0 0 0 0 0 0 0 0 0 0 127 0" result="hardAlpha_0_28"/>
<feOffset dx="0" dy="-13"/>
<feGaussianBlur stdDeviation="2"/>
<feComposite in2="hardAlpha_0_28" operator="arithmetic" k2="-1" k3="1"/>
<feColorMatrix type="matrix" values="0 0 0 0 0 0 0 0 0 0 0 0 0 0 0 0 0 0 0.25 0"/>
<feBlend mode="normal" in2="shape_0_28" result="innerShadow_0_0_28" />
</filter>
<filter id="filter_0_40" x="952.12158203125" y="873.5499210357666" width="242.0186767578125" height="101.19547080993652" filterUnits="userSpaceOnUse" color-interpolation-filters="sRGB">
<feFlood flood-opacity="0" result="feFloodId_0_40"/>
<feBlend mode="normal" in="SourceGraphic" in2="feFloodId_0_40" result="shape_0_40"/>
<feColorMatrix in="SourceAlpha" type="matrix" values="0 0 0 0 0 0 0 0 0 0 0 0 0 0 0 0 0 0 127 0" result="hardAlpha_0_40"/>
<feOffset dx="-10" dy="2"/>
<feGaussianBlur stdDeviation="2"/>
<feComposite in2="hardAlpha_0_40" operator="arithmetic" k2="-1" k3="1"/>
<feColorMatrix type="matrix" values="0 0 0 0 0 0 0 0 0 0 0 0 0 0 0 0 0 0 0.25 0"/>
<feBlend mode="normal" in2="shape_0_40" result="innerShadow_0_0_40" />
</filter>
<filter id="filter_0_46" x="371.9959716796875" y="1313.0208740234375" width="268.69793701171875" height="328.2191162109375" filterUnits="userSpaceOnUse" color-interpolation-filters="sRGB">
<feFlood flood-opacity="0" result="feFloodId_0_46"/>
<feBlend mode="normal" in="SourceGraphic" in2="feFloodId_0_46" result="shape_0_46"/>
<feColorMatrix in="SourceAlpha" type="matrix" values="0 0 0 0 0 0 0 0 0 0 0 0 0 0 0 0 0 0 127 0" result="hardAlpha_0_46"/>
<feOffset dx="-15" dy="6"/>
<feGaussianBlur stdDeviation="18.5"/>
<feComposite in2="hardAlpha_0_46" operator="arithmetic" k2="-1" k3="1"/>
<feColorMatrix type="matrix" values="0 0 0 0 0 0 0 0 0 0 0 0 0 0 0 0 0 0 0.25 0"/>
<feBlend mode="normal" in2="shape_0_46" result="innerShadow_0_0_46" />
</filter>
<filter id="filter_0_47" x="1463.1240234375" y="1258.0208740234375" width="450.630126953125" height="472.6375732421875" filterUnits="userSpaceOnUse" color-interpolation-filters="sRGB">
<feFlood flood-opacity="0" result="feFloodId_0_47"/>
<feColorMatrix in="SourceAlpha" type="matrix" values="0 0 0 0 0 0 0 0 0 0 0 0 0 0 0 0 0 0 127 0" result="hardAlpha_0_47"/>
<feOffset dx="7" dy="2"/>
<feGaussianBlur stdDeviation="30.5"/>
<feComposite in2="hardAlpha_0_47" operator="out"/>
<feColorMatrix type="matrix" values="0 0 0 0 0 0 0 0 0 0 0 0 0 0 0 0 0 0 0.15 0"/>
<feBlend mode="normal" in2="feFloodId_0_47" result="dropShadow_1_0_47"/>
<feBlend mode="normal" in="SourceGraphic" in2="dropShadow_1_0_47" result="shape_0_47"/>
<feBlend mode="normal" in="SourceGraphic" in2="feFloodId_0_47" result="shape_0_47"/>
<feColorMatrix in="SourceAlpha" type="matrix" values="0 0 0 0 0 0 0 0 0 0 0 0 0 0 0 0 0 0 127 0" result="hardAlpha_0_47"/>
<feOffset dx="21" dy="2"/>
<feGaussianBlur stdDeviation="18"/>
<feComposite in2="hardAlpha_0_47" operator="arithmetic" k2="-1" k3="1"/>
<feColorMatrix type="matrix" values="0 0 0 0 0 0 0 0 0 0 0 0 0 0 0 0 0 0 0.25 0"/>
<feBlend mode="normal" in2="shape_0_47" result="innerShadow_0_0_47" />
</filter>
</defs>
</svg>
